HIERARCHY
ROOT Hips
{
	OFFSET 0.00000 0.00000 0.00000
	CHANNELS 6 Xposition Yposition Zposition Zrotation Yrotation Xrotation 
	JOINT LHipJoint
	{
		OFFSET 0 0 0
		CHANNELS 3 Zrotation Yrotation Xrotation
		JOINT LeftUpLeg
		{
			OFFSET 1.64577 -1.42384 0.94276
			CHANNELS 3 Zrotation Yrotation Xrotation
			JOINT LeftLeg
			{
				OFFSET 2.11538 -5.81197 0.00000
				CHANNELS 3 Zrotation Yrotation Xrotation
				JOINT LeftFoot
				{
					OFFSET 2.36541 -6.49893 0.00000
					CHANNELS 3 Zrotation Yrotation Xrotation
					JOINT LeftToeBase
					{
						OFFSET 0.17759 -0.48793 1.73865
						CHANNELS 3 Zrotation Yrotation Xrotation
						End Site
						{
							OFFSET 0.00000 -0.00000 0.91205
						}
					}
				}
			}
		}
	}
	JOINT RHipJoint
	{
		OFFSET 0 0 0
		CHANNELS 3 Zrotation Yrotation Xrotation
		JOINT RightUpLeg
		{
			OFFSET -1.43750 -1.42384 0.94276
			CHANNELS 3 Zrotation Yrotation Xrotation
			JOINT RightLeg
			{
				OFFSET -2.10480 -5.78291 0.00000
				CHANNELS 3 Zrotation Yrotation Xrotation
				JOINT RightFoot
				{
					OFFSET -2.34880 -6.45329 0.00000
					CHANNELS 3 Zrotation Yrotation Xrotation
					JOINT RightToeBase
					{
						OFFSET -0.22842 -0.62757 1.80469
						CHANNELS 3 Zrotation Yrotation Xrotation
						End Site
						{
							OFFSET -0.00000 -0.00000 0.95886
						}
					}
				}
			}
		}
	}
	JOINT LowerBack
	{
		OFFSET 0 0 0
		CHANNELS 3 Zrotation Yrotation Xrotation
		JOINT Spine
		{
			OFFSET 0.06217 1.93758 -0.49272
			CHANNELS 3 Zrotation Yrotation Xrotation
			JOINT Spine1
			{
				OFFSET -0.03114 2.03621 -0.05830
				CHANNELS 3 Zrotation Yrotation Xrotation
				JOINT Neck
				{
					OFFSET 0 0 0
					CHANNELS 3 Zrotation Yrotation Xrotation
					JOINT Neck1
					{
						OFFSET 0.04421 1.41010 0.26562
						CHANNELS 3 Zrotation Yrotation Xrotation
						JOINT Head
						{
							OFFSET -0.13407 1.43847 0.06181
							CHANNELS 3 Zrotation Yrotation Xrotation
							End Site
							{
								OFFSET -0.04980 1.45844 -0.00689
							}
						}
					}
				}
				JOINT LeftShoulder
				{
					OFFSET 0 0 0
					CHANNELS 3 Zrotation Yrotation Xrotation
					JOINT LeftArm
					{
						OFFSET 2.18382 1.47753 -0.35694
						CHANNELS 3 Zrotation Yrotation Xrotation
						JOINT LeftForeArm
						{
							OFFSET 5.05460 -0.00000 0.00000
							CHANNELS 3 Zrotation Yrotation Xrotation
							JOINT LeftHand
							{
								OFFSET 3.39013 -0.00000 0.00000
								CHANNELS 3 Zrotation Yrotation Xrotation
								JOINT LeftFingerBase
								{
									OFFSET 0 0 0
									CHANNELS 3 Zrotation Yrotation Xrotation
									JOINT LeftHandIndex1
									{
										OFFSET 0.57242 -0.00000 -0.00000
										CHANNELS 3 Zrotation Yrotation Xrotation
										End Site
										{
											OFFSET 0.46150 -0.00000 -0.00000
										}
									}
								}
								JOINT LThumb
								{
									OFFSET 0 0 0
									CHANNELS 3 Zrotation Yrotation Xrotation
									End Site
									{
										OFFSET 0.46855 -0.00000 0.46855
									}
								}
							}
						}
					}
				}
				JOINT RightShoulder
				{
					OFFSET 0 0 0
					CHANNELS 3 Zrotation Yrotation Xrotation
					JOINT RightArm
					{
						OFFSET -2.06033 1.72839 -0.47437
						CHANNELS 3 Zrotation Yrotation Xrotation
						JOINT RightForeArm
						{
							OFFSET -5.07010 -0.00000 0.00000
							CHANNELS 3 Zrotation Yrotation Xrotation
							JOINT RightHand
							{
								OFFSET -3.14957 -0.00000 -0.00000
								CHANNELS 3 Zrotation Yrotation Xrotation
								JOINT RightFingerBase
								{
									OFFSET 0 0 0
									CHANNELS 3 Zrotation Yrotation Xrotation
									JOINT RightHandIndex1
									{
										OFFSET -0.71819 -0.00000 -0.00000
										CHANNELS 3 Zrotation Yrotation Xrotation
										End Site
										{
											OFFSET -0.57902 -0.00000 -0.00000
										}
									}
								}
								JOINT RThumb
								{
									OFFSET 0 0 0
									CHANNELS 3 Zrotation Yrotation Xrotation
									End Site
									{
										OFFSET -0.58786 -0.00000 0.58786
									}
								}
							}
						}
					}
				}
			}
		}
	}
}
MOTION
Frames: 7
Frame Time: 0.111111
0.00 0.00 0.00 0 0 0 0 0 0 -21 0 0 0 0 0 0 0 0 0 0 0 0 0 0 21 0 0 0 0 0 0 0 0 0 0 0 0 0 0 0 0 0 0 0 0 0 0 -16 0 0 21 0 0 11 0 0 0 -8 0 0 0 0 0 0 0 0 0 0 0 0 0 0 0 0 0 0 0 0 8 0 0 0 0 0 0 0 0 0 0 0 0 0 0 0 0 0
0.00 0.00 0.00 178.3130 5.0160 177.2740 0.0000 0.0000 0.0000 -21.3139 -12.7603 2.6536 1.3578 7.3759 20.8339 0.5086 18.1029 -29.5260 0.0332 -1.1761 -3.2335 0.0000 0.0000 0.0000 21.0691 14.4937 0.1968 -1.8643 -8.5776 24.4826 -0.8510 -16.9910 -30.6008 -2.5587 9.9439 -28.7952 -0.9380 1.8919 6.3451 -1.7027 2.6602 2.8925 -1.4011 1.4225 -0.5350 12.8071 7.8959 1.8030 -9.6250 10.5811 -4.7244 -4.9261 5.2399 -0.4846 -0.0000 0.0000 0.0000 -75.7168 23.2313 41.7640 89.4300 -59.9988 -59.5064 -0.0000 -0.0000 0.6622 35.1773 -5.6262 -3.9529 -7.1250 0.0000 -0.0000 6.2409 23.1173 -3.3085 -0.0000 0.0000 0.0000 78.4223 -20.9920 49.7885 -75.6901 59.2119 -47.6400 0.0000 -0.0000 -18.1860 -21.7518 11.1062 -4.3950 7.1250 -0.0000 -0.0000 3.7621 -18.0610 2.4156
0.00 0.00 0.00 178.3120 4.9298 177.5380 0.0000 0.0000 0.0000 -21.8121 -14.3113 3.2661 1.3083 7.2456 20.4451 0.5128 18.9487 -30.5549 0.0026 -0.3310 -0.9094 0.0000 0.0000 0.0000 20.9028 14.7568 -0.0619 -1.8675 -8.5845 24.5041 -0.9600 -16.7140 -31.0223 -2.2943 9.4539 -27.2259 -1.7192 1.8227 7.1714 -1.6825 2.4611 2.3544 -0.9762 1.3101 -1.5830 13.4483 7.9287 1.0370 -10.4489 10.5471 -4.2378 -5.2218 5.2154 -0.1381 -0.0000 -0.0000 0.0000 -74.4530 25.5548 40.4223 108.4277 -58.6772 -75.8880 -0.0000 -0.0000 5.5272 35.1997 -6.9114 -4.8519 -7.1250 0.0000 -0.0000 6.1154 21.5609 -3.4595 -0.0000 -0.0000 0.0000 76.8200 -22.2984 49.7248 -95.2235 59.8966 -64.5221 0.0000 -0.0000 -16.9393 -18.5229 13.4790 -4.4654 7.1250 -0.0000 -0.0000 6.0728 -15.8464 4.2078
0.00 0.00 0.00 178.3040 5.8664 177.7590 0.0000 0.0000 0.0000 -22.4056 -14.8922 3.7751 1.2893 7.1947 20.2935 0.5839 19.8497 -32.0799 0.0000 0.0096 0.0265 0.0000 0.0000 0.0000 20.6116 15.3554 -0.1233 -1.8721 -8.5945 24.5349 -1.0279 -16.2029 -30.9414 -2.1759 9.2233 -26.4963 -1.5949 1.9610 7.9626 -2.2135 2.5754 1.5595 -1.6579 1.3594 -2.8129 13.5008 8.0321 -1.4625 -9.8998 10.4989 -1.7443 -4.8886 5.1657 0.9614 -0.0000 0.0000 0.0000 -72.2834 28.5113 37.0407 123.8730 -55.1863 -88.8607 -0.0000 -0.0000 9.5349 35.1380 -10.1506 -7.0706 -7.1250 0.0000 -0.0000 5.6851 17.6674 -3.7100 -0.0000 0.0000 0.0000 74.5172 -22.7014 49.4746 -113.4073 57.8250 -80.1233 0.0000 -0.0000 -13.1513 -16.0300 17.0121 -4.8050 7.1250 -0.0000 -0.0000 7.8449 -12.4450 6.0281
0.00 0.00 0.00 178.3980 6.5425 178.0770 0.0000 0.0000 0.0000 -22.1548 -13.8965 3.1249 1.3026 7.2304 20.3998 0.6902 19.2589 -32.0639 0.0006 0.1584 0.4353 0.0000 0.0000 0.0000 20.5591 15.7689 -0.3409 -1.8836 -8.6193 24.6115 -0.9285 -16.3898 -30.4828 -2.1792 9.2298 -26.5168 -1.7001 1.9837 8.7014 -2.5382 2.5217 0.8125 -1.9852 1.3233 -3.9904 12.8620 8.8208 -4.3805 -10.5849 11.3983 0.4409 -4.7594 5.5967 2.1890 0.0000 -0.0000 0.0000 -69.3765 31.9739 31.1246 135.9173 -50.3111 -98.4694 -0.0000 -0.0000 12.1600 35.4958 -13.0939 -9.1780 -7.1250 0.0000 -0.0000 5.5364 14.0890 -4.0414 0.0000 -0.0000 0.0000 70.6323 -23.7454 47.0239 -131.6075 52.3263 -95.1039 0.0000 -0.0000 -10.9960 -17.5516 20.4211 -6.2976 7.1250 -0.0000 -0.0000 6.9940 -8.7778 5.8900
0.00 0.00 0.00 178.4730 6.3738 178.6180 0.0000 0.0000 0.0000 -22.9660 -16.2368 4.7195 1.2464 7.0786 19.9484 0.8910 20.3634 -34.5018 0.0278 1.0755 2.9566 0.0000 0.0000 0.0000 20.7013 16.4122 0.0069 -1.9083 -8.6724 24.7759 -1.1749 -16.0914 -31.7644 -1.8764 8.6037 -24.5633 -2.7781 2.1284 7.9441 -2.9960 2.5761 -0.3090 -1.8679 1.3656 -4.7610 13.6016 8.9615 -6.3446 -12.1783 11.3991 1.8468 -5.2465 5.4463 3.0734 -0.0000 0.0000 0.0000 -62.3657 37.4061 20.3501 151.1751 -39.8647 -109.3517 -0.0000 -0.0000 11.1446 41.0607 -16.5285 -13.9194 -7.1250 0.0000 -0.0000 8.5755 8.6908 -7.2653 -0.0000 0.0000 0.0000 63.3511 -27.5893 35.2202 -148.4783 42.1626 -107.5814 0.0000 -0.0000 -8.5315 -21.7376 24.1026 -9.2478 7.1250 -0.0000 -0.0000 4.6555 -4.3360 4.3047
0.00 0.00 0.00 179.1810 4.8780 179.1820 0.0000 0.0000 0.0000 -24.3138 -19.6876 8.5309 1.2827 7.1770 20.2408 1.8975 20.1613 -39.5187 0.1363 2.3799 6.5568 0.0000 0.0000 0.0000 22.4034 16.4612 2.9828 -1.8713 -8.5927 24.5293 -1.5642 -17.3542 -35.2325 -2.0784 9.0274 -25.8811 -3.5414 1.2755 3.7385 -3.0613 1.5261 -3.2461 -1.3322 0.9082 -5.4752 13.3735 8.9789 -8.3937 -16.0765 12.6474 7.5198 -6.1544 5.9744 5.5469 0.0000 0.0000 0.0000 -51.6526 34.9917 -6.9855 160.9086 -29.5321 -114.9242 -0.0000 -0.0000 8.4781 60.4295 -22.6040 -34.1140 -7.1250 0.0000 -0.0000 18.1675 -8.4383 -21.6757 0.0000 0.0000 0.0000 52.7961 -29.4791 -10.2609 -159.7564 30.9348 -114.3439 0.0000 -0.0000 -15.9216 -29.4511 26.7454 -14.2575 7.1250 -0.0000 -0.0000 0.3551 0.0788 0.3556
